<svg width="484" height="85" viewBox="0 0 484 85" fill="none" xmlns="http://www.w3.org/2000/svg">
<g clip-path="url(#clip0_53_1126)">
<path d="M215.201 20.5645C219.262 24.9516 221.427 31.3952 221.427 39.7581V78.2823H203.832V40.3064C203.832 36.4677 202.885 33.5887 200.855 31.6694C198.96 29.75 196.253 28.7903 193.005 28.7903C189.485 28.7903 186.779 29.8871 184.748 31.9435C182.718 34 181.635 37.1532 181.635 41.2661V78.4194H164.04V40.3064C164.04 36.4677 163.093 33.5887 161.333 31.6694C159.574 29.75 157.002 28.7903 153.889 28.7903C150.506 28.7903 147.799 29.8871 145.768 31.9435C143.738 34 142.791 37.1532 142.791 41.2661V78.4194H125.196V15.3548H142.249V22.3468C144.144 19.6048 146.581 17.5484 149.558 16.1774C152.536 14.8065 156.055 14.121 159.98 14.121C164.04 14.121 167.695 14.8065 170.672 16.3145C173.785 17.8226 176.222 20.0161 178.116 22.8952C180.282 20.0161 182.989 17.8226 186.508 16.3145C189.892 14.8065 193.817 14.121 198.012 14.121C205.321 13.9839 211.141 16.1774 215.201 20.5645Z" fill="#1D0445"/>
<path d="M233.608 21.3871C231.714 19.6048 230.766 17.5484 230.766 14.9435C230.766 12.3387 231.714 10.1452 233.608 8.5C235.503 6.71774 237.94 5.89516 241.053 5.89516C244.166 5.89516 246.602 6.71774 248.497 8.3629C250.391 10.0081 251.339 12.2016 251.339 14.6694C251.339 17.4113 250.391 19.6048 248.497 21.3871C246.602 23.1694 244.166 23.9919 241.053 23.9919C237.94 23.9919 235.503 23.1694 233.608 21.3871ZM232.661 29.4758H249.579V78.2823H232.661V29.4758Z" fill="#1D0445"/>
<path d="M266.092 77.7339C262.167 76.7742 259.054 75.5403 256.617 74.0323L261.625 62.379C263.791 63.75 266.498 64.8468 269.475 65.6694C272.453 66.4919 275.431 66.9032 278.408 66.9032C281.115 66.9032 283.145 66.629 284.228 66.0806C285.446 65.5323 285.988 64.7097 285.988 63.6129C285.988 62.5161 285.311 61.8306 283.957 61.2823C282.604 60.871 280.303 60.4597 277.325 59.9113C273.536 59.3629 270.152 58.8145 267.445 57.9919C264.738 57.1694 262.437 55.7984 260.407 53.6048C258.512 51.5484 257.429 48.5323 257.429 44.8306C257.429 41.6774 258.377 38.9355 260.136 36.4677C262.031 34 264.603 32.0806 268.122 30.7097C271.641 29.3387 275.837 28.6532 280.844 28.6532C284.364 28.6532 287.747 29.0645 291.266 29.75C294.65 30.4355 297.627 31.5323 299.928 32.7661L294.921 44.4194C290.589 41.9516 285.988 40.8548 280.98 40.8548C278.273 40.8548 276.378 41.129 275.16 41.8145C273.942 42.5 273.265 43.3226 273.265 44.2823C273.265 45.379 273.942 46.2016 275.295 46.6129C276.649 47.0242 278.95 47.5726 282.063 47.9839C285.988 48.5323 289.371 49.2177 291.943 50.0403C294.515 50.8629 296.815 52.2339 298.71 54.2903C300.605 56.3468 301.553 59.2258 301.553 62.9274C301.553 65.9435 300.605 68.6855 298.846 71.1532C296.951 73.621 294.244 75.5403 290.725 76.9113C287.07 78.2823 282.875 78.9677 277.732 78.9677C273.942 79.1048 270.017 78.6935 266.092 77.7339Z" fill="#1D0445"/>
<path d="M319.418 75.8145C315.223 73.621 311.974 70.6048 309.673 66.7661C307.372 62.9274 306.154 58.5403 306.154 53.7419C306.154 48.9436 307.372 44.5565 309.673 40.7177C311.974 36.879 315.223 33.8629 319.418 31.8065C323.479 29.6129 328.216 28.6532 333.494 28.6532C338.773 28.6532 343.375 29.75 347.57 31.8065C351.766 34 355.015 36.879 357.315 40.7177C359.616 44.5565 360.834 48.9436 360.834 53.7419C360.834 58.6774 359.616 62.9274 357.315 66.7661C355.015 70.6048 351.766 73.621 347.57 75.8145C343.375 78.0081 338.773 79.1048 333.494 79.1048C328.216 79.1048 323.479 78.0081 319.418 75.8145ZM340.668 62.379C342.563 60.3226 343.51 57.4436 343.51 53.7419C343.51 50.1774 342.563 47.2984 340.668 45.2419C338.773 43.1855 336.337 42.2258 333.359 42.2258C330.381 42.2258 327.945 43.1855 326.05 45.2419C324.155 47.2984 323.208 50.1774 323.208 53.7419C323.208 57.4436 324.155 60.3226 326.05 62.379C327.945 64.4355 330.381 65.5323 333.359 65.5323C336.337 65.5323 338.773 64.4355 340.668 62.379Z" fill="#1D0445"/>
<path d="M373.286 74.4436C370.038 71.2903 368.414 66.9032 368.414 61.1452V11.379H385.332V60.3226C385.332 62.1048 385.738 63.4758 386.686 64.4355C387.633 65.3952 388.851 65.9436 390.611 65.9436C391.964 65.9436 393.182 65.6694 394.4 64.9839L395.077 77.871C392.506 78.6936 389.934 79.1049 387.092 79.1049C381.272 79.1049 376.67 77.5968 373.286 74.4436Z" fill="#1D0445"/>
<path d="M406.04 74.4436C402.792 71.2903 401.168 66.9032 401.168 61.1452V11.379H418.086V60.3226C418.086 62.1048 418.492 63.4758 419.44 64.4355C420.387 65.3952 421.605 65.9436 423.365 65.9436C424.718 65.9436 425.936 65.6694 427.154 64.9839L427.831 77.871C425.26 78.6936 422.688 79.1049 419.846 79.1049C414.026 79.1049 409.424 77.5968 406.04 74.4436Z" fill="#1D0445"/>
<path d="M484 29.4758V78.2823H467.894V73.3468C464.781 77.1855 460.044 78.9677 453.682 78.9677C449.351 78.9677 445.291 77.871 441.772 75.8145C438.117 73.7581 435.275 70.7419 433.245 66.9032C431.079 63.0645 430.132 58.6774 430.132 53.6048C430.132 48.5323 431.215 44.1452 433.245 40.3065C435.411 36.4677 438.253 33.5887 441.772 31.5323C445.426 29.4758 449.351 28.5161 453.682 28.5161C459.367 28.5161 463.833 30.1613 467.082 33.5887V29.3387H484V29.4758ZM464.51 62.379C466.405 60.3226 467.352 57.4436 467.352 53.7419C467.352 50.1774 466.405 47.2984 464.51 45.2419C462.615 43.1855 460.179 42.2258 457.201 42.2258C454.224 42.2258 451.787 43.1855 449.893 45.2419C447.998 47.2984 447.05 50.1774 447.05 53.7419C447.05 57.4436 447.998 60.3226 449.893 62.379C451.787 64.4355 454.224 65.5323 457.201 65.5323C460.179 65.5323 462.615 64.4355 464.51 62.379Z" fill="#1D0445"/>
<path d="M22.0615 0H45.3412V22.3468L53.3266 0H76.7416V22.3468L84.7271 0H108.007V23.5806L85.9452 85H62.6655V62.6532L54.6801 85H31.2651V62.6532L23.2796 85H0V61.4194L22.0615 0Z" fill="#1D0445"/>
</g>
<defs>
<clipPath id="clip0_53_1126">
<rect width="484" height="85" fill="white"/>
</clipPath>
</defs>
</svg>
